<svg id="svg" version="1.1" xmlns="http://www.w3.org/2000/svg" xmlns:xlink="http://www.w3.org/1999/xlink" width="400" height="400" viewBox="0, 0, 400,400"><g id="svgg"><path id="path0" d="M253.306 52.493 C 253.275 52.581,252.929 53.049,252.538 53.535 C 251.323 55.039,250.449 56.162,249.583 57.333 C 249.125 57.953,248.450 58.833,248.083 59.290 C 247.717 59.746,246.595 61.187,245.590 62.492 C 244.585 63.797,243.685 64.965,243.590 65.088 C 243.483 65.226,242.878 65.348,242.000 65.410 C 241.221 65.466,235.333 65.922,228.917 66.424 C 222.500 66.927,215.825 67.410,214.083 67.499 C 210.009 67.706,195.939 68.871,190.917 69.417 C 186.175 69.933,182.747 70.374,182.627 70.483 C 182.272 70.808,184.038 80.052,185.405 85.030 C 192.070 109.286,206.514 126.822,229.991 139.155 C 235.373 141.982,236.769 143.596,238.144 148.583 C 239.124 152.137,239.321 153.881,239.498 160.583 C 239.739 169.663,239.534 168.549,245.222 191.715 C 247.919 202.696,250.168 211.723,250.220 211.775 C 250.272 211.827,251.575 211.564,253.116 211.189 C 257.317 210.168,264.481 208.597,269.985 207.489 C 272.680 206.947,274.924 206.465,274.971 206.418 C 275.067 206.321,274.640 203.074,272.998 191.417 C 272.365 186.925,271.811 182.838,271.768 182.333 C 271.724 181.829,271.350 179.129,270.938 176.333 C 269.887 169.223,269.705 167.913,269.581 166.583 C 269.521 165.942,269.294 164.217,269.077 162.750 C 268.860 161.283,268.449 158.508,268.164 156.583 C 267.879 154.658,267.571 152.408,267.478 151.583 C 267.386 150.758,266.981 147.796,266.578 145.000 C 266.175 142.204,265.687 138.717,265.494 137.250 C 265.300 135.783,264.881 132.708,264.562 130.417 C 264.243 128.125,263.719 124.337,263.398 122.000 C 263.077 119.662,262.334 114.337,261.746 110.167 C 261.157 105.996,260.632 102.133,260.578 101.583 C 260.525 101.033,259.997 97.303,259.407 93.293 C 258.816 89.284,258.333 85.756,258.333 85.453 C 258.333 84.937,258.010 82.654,256.827 74.813 C 256.556 73.015,256.256 70.765,256.159 69.813 C 256.063 68.862,255.535 65.020,254.985 61.276 C 254.035 54.809,253.909 53.868,253.856 52.792 C 253.834 52.354,253.430 52.135,253.306 52.493 M171.417 71.951 C 170.477 72.037,168.101 72.366,161.583 73.311 C 158.467 73.763,155.354 74.183,154.667 74.244 C 153.979 74.305,152.186 74.538,150.683 74.761 C 149.179 74.984,147.848 75.167,147.724 75.167 C 147.272 75.167,147.526 75.602,148.647 76.746 C 149.594 77.713,151.094 79.598,152.225 81.242 C 152.485 81.619,152.296 81.661,158.083 79.924 C 161.270 78.967,165.714 77.639,170.141 76.321 C 171.457 75.929,172.571 75.509,172.618 75.386 C 172.724 75.110,172.317 71.823,172.181 71.861 C 172.127 71.877,171.783 71.917,171.417 71.951 M202.918 82.088 C 205.247 83.828,205.106 83.556,204.432 85.023 C 202.942 88.267,202.420 91.786,203.257 92.945 C 204.286 94.369,206.857 94.861,212.988 94.808 L 217.226 94.771 217.881 95.844 C 220.619 100.330,220.582 99.796,218.202 100.562 C 199.597 106.556,190.986 98.222,199.683 82.638 C 201.011 80.259,200.571 80.334,202.918 82.088 M166.916 100.691 C 166.275 100.952,165.660 101.165,165.550 101.166 C 165.440 101.166,164.308 101.692,163.035 102.333 C 161.761 102.975,160.647 103.500,160.560 103.500 C 159.942 103.500,160.058 103.935,160.925 104.872 C 161.815 105.833,163.333 108.575,163.333 109.221 C 163.333 109.380,163.439 109.551,163.569 109.601 C 163.764 109.676,178.136 106.919,178.275 106.781 C 178.299 106.756,177.441 106.181,176.368 105.502 C 175.295 104.822,173.629 103.769,172.667 103.160 C 171.704 102.551,170.279 101.640,169.500 101.135 L 168.082 100.218 166.916 100.691 M178.083 116.677 C 176.800 117.040,174.438 117.687,172.833 118.117 C 169.358 119.048,169.671 118.850,170.172 119.794 C 172.226 123.669,175.533 124.558,181.140 122.743 C 184.284 121.726,184.620 121.493,184.502 120.418 C 184.433 119.787,181.062 115.985,180.594 116.009 C 180.497 116.015,179.367 116.315,178.083 116.677 M188.754 140.542 C 188.707 140.748,188.404 142.929,188.081 145.388 C 187.758 147.847,187.236 151.597,186.921 153.721 C 186.606 155.845,186.193 158.821,186.002 160.333 C 185.811 161.846,185.284 165.708,184.832 168.917 C 184.380 172.125,183.855 175.987,183.665 177.500 C 183.475 179.012,182.988 182.688,182.584 185.667 C 181.940 190.403,181.073 197.855,180.750 201.417 C 180.400 205.271,178.691 209.902,174.261 219.000 L 172.191 223.250 180.955 223.293 C 185.775 223.317,189.748 223.307,189.784 223.272 C 189.820 223.236,189.967 222.560,190.113 221.770 C 190.258 220.980,190.435 220.333,190.506 220.333 C 190.578 220.333,190.722 219.790,190.827 219.125 C 190.932 218.460,191.496 215.442,192.080 212.417 C 192.665 209.392,193.343 205.829,193.588 204.500 C 195.062 196.495,197.812 192.125,203.611 188.573 C 204.284 188.160,208.889 184.823,209.000 184.667 C 209.046 184.603,209.421 184.339,209.833 184.081 C 210.246 183.824,210.996 183.269,211.500 182.848 C 212.004 182.428,212.540 182.008,212.691 181.917 C 213.122 181.655,217.127 178.385,218.391 177.263 C 219.019 176.706,220.012 175.575,220.598 174.750 C 222.863 171.562,223.237 171.057,223.941 170.232 C 224.340 169.764,224.667 169.307,224.667 169.216 C 224.667 169.126,224.826 168.909,225.021 168.734 C 225.217 168.560,225.832 167.817,226.390 167.083 C 226.947 166.350,228.108 164.860,228.969 163.773 C 230.461 161.889,230.525 161.775,230.314 161.380 C 229.790 160.401,226.959 158.224,223.167 155.885 C 217.713 152.521,216.222 151.584,214.083 150.175 C 209.354 147.059,201.337 143.735,191.931 140.990 C 188.651 140.032,188.864 140.062,188.754 140.542 " stroke="none" fill="#c3bbbb" fill-rule="evenodd"></path><path id="path1" d="M180.407 62.100 C 179.862 62.430,179.042 62.878,178.583 63.095 C 178.125 63.313,177.225 63.802,176.583 64.183 C 175.942 64.564,174.842 65.169,174.140 65.528 C 173.438 65.886,172.768 66.295,172.650 66.437 C 172.318 66.837,172.259 71.042,172.555 73.238 C 172.917 75.926,173.761 75.386,165.250 77.904 C 163.600 78.392,160.188 79.412,157.667 80.169 C 151.719 81.957,152.412 81.930,151.445 80.412 C 150.595 79.079,147.916 75.833,147.665 75.833 C 147.584 75.833,147.420 75.630,147.301 75.381 C 146.826 74.395,143.525 72.329,141.783 71.928 C 133.776 70.086,128.507 74.894,128.501 84.049 C 128.495 94.713,135.183 97.893,151.167 94.826 C 155.053 94.081,156.016 93.857,158.833 93.043 C 160.254 92.633,161.829 92.197,162.333 92.075 C 162.837 91.953,164.369 91.436,165.737 90.926 C 168.740 89.808,168.500 89.812,168.502 90.875 C 168.503 91.356,168.690 93.475,168.918 95.583 C 169.145 97.692,169.332 99.464,169.332 99.521 C 169.333 99.579,169.108 99.719,168.833 99.833 C 168.042 100.161,167.430 99.698,174.883 104.418 C 176.881 105.683,178.456 106.771,178.383 106.835 C 178.256 106.947,163.951 109.844,163.561 109.837 C 163.457 109.835,163.244 109.440,163.089 108.958 C 162.576 107.373,161.764 105.939,160.790 104.897 L 159.830 103.871 159.031 104.297 L 158.231 104.724 157.774 106.404 C 157.523 107.327,156.984 109.221,156.576 110.612 C 155.169 115.404,155.263 117.645,156.912 118.664 C 157.728 119.168,160.815 119.180,162.279 118.683 C 163.537 118.257,163.533 118.251,163.541 120.859 C 163.548 123.385,163.350 124.336,162.090 127.833 C 161.677 128.979,161.338 129.973,161.336 130.042 C 161.335 130.110,164.563 130.167,168.511 130.167 C 176.895 130.167,176.599 130.102,177.268 132.072 C 177.628 133.133,177.577 134.579,176.600 151.000 C 175.896 162.843,175.589 168.707,175.158 178.583 C 174.660 189.991,174.358 194.569,174.032 195.667 C 173.323 198.054,172.649 199.869,171.763 201.776 C 171.252 202.877,170.833 203.839,170.833 203.915 C 170.833 203.990,170.377 204.996,169.820 206.151 C 169.263 207.305,168.556 208.899,168.249 209.692 C 167.943 210.485,167.570 211.371,167.420 211.661 C 167.270 211.951,167.125 212.464,167.098 212.802 C 167.071 213.140,166.925 213.864,166.774 214.410 C 166.172 216.589,166.704 218.700,168.551 221.461 C 170.698 224.671,171.583 224.457,173.552 220.250 C 174.238 218.783,175.473 216.158,176.296 214.417 C 177.873 211.080,179.192 207.739,179.907 205.269 C 180.315 203.859,180.418 203.151,180.832 198.917 C 181.049 196.688,182.603 184.412,183.520 177.667 C 183.888 174.963,184.484 170.537,184.845 167.833 C 185.206 165.129,185.917 159.954,186.424 156.333 C 186.932 152.712,187.652 147.575,188.024 144.917 C 188.813 139.280,188.574 139.885,189.870 140.241 C 199.918 143.005,209.542 146.957,214.766 150.464 C 216.548 151.661,218.803 153.078,223.220 155.776 C 229.566 159.652,230.892 161.095,231.341 164.612 C 231.445 165.421,231.980 168.783,232.532 172.083 C 233.083 175.383,233.603 178.676,233.688 179.400 C 233.849 180.790,234.531 184.737,235.258 188.500 C 235.497 189.737,235.768 191.275,235.861 191.917 C 236.100 193.571,236.586 195.939,237.416 199.500 C 238.956 206.104,239.357 210.794,238.533 212.583 C 238.101 213.523,236.718 214.562,234.250 215.799 C 231.786 217.035,231.643 217.196,229.626 221.000 C 228.776 222.603,229.094 224.132,230.408 224.758 C 230.688 224.891,231.179 225.229,231.500 225.510 C 231.821 225.791,232.921 226.434,233.945 226.940 C 236.439 228.173,236.645 228.442,236.988 230.907 C 237.231 232.652,237.961 246.216,238.169 252.833 C 238.260 255.721,238.629 264.046,238.990 271.333 C 239.662 284.904,240.291 298.831,240.759 310.500 C 241.300 324.001,241.337 324.181,244.050 326.764 C 248.020 330.544,250.498 331.623,252.780 330.565 C 254.355 329.834,256.513 326.998,257.199 324.757 L 257.554 323.597 257.188 320.840 C 256.987 319.324,256.334 314.596,255.736 310.333 C 255.139 306.071,254.124 298.833,253.482 294.250 C 249.281 264.254,247.683 253.180,246.233 244.000 C 244.093 230.450,242.788 225.667,241.230 225.667 C 240.200 225.667,236.333 222.211,236.333 221.292 C 236.333 219.809,241.717 216.641,248.724 213.999 C 249.535 213.694,250.232 213.357,250.273 213.250 C 250.314 213.144,249.673 210.325,248.848 206.987 C 245.650 194.035,241.027 175.171,240.519 173.000 C 239.858 170.171,239.481 166.183,239.330 160.417 C 238.989 147.321,237.350 143.233,231.105 139.899 C 224.464 136.353,221.801 134.761,217.976 132.046 C 199.544 118.968,188.273 101.144,183.501 77.532 C 182.772 73.927,181.999 66.812,182.000 63.722 C 182.000 61.200,181.960 61.159,180.407 62.100 M200.196 81.958 C 192.597 95.059,197.116 103.961,210.500 102.256 C 213.665 101.853,220.000 100.136,220.000 99.682 C 220.000 99.622,219.367 98.529,218.593 97.252 L 217.186 94.929 212.552 94.913 C 201.858 94.876,200.685 93.214,204.774 83.887 C 204.848 83.718,201.237 80.833,200.951 80.833 C 200.894 80.833,200.554 81.340,200.196 81.958 M182.193 117.292 C 185.795 120.951,185.646 121.534,180.721 123.027 C 175.617 124.575,172.902 123.887,170.475 120.432 C 169.382 118.875,169.308 118.971,172.208 118.175 C 173.606 117.792,176.025 117.116,177.583 116.674 C 179.142 116.233,180.493 115.863,180.587 115.852 C 180.680 115.842,181.403 116.490,182.193 117.292 M140.063 220.204 C 139.782 220.504,139.384 221.032,139.178 221.377 C 138.972 221.722,138.537 222.322,138.211 222.710 C 137.884 223.099,137.497 223.680,137.350 224.002 C 137.203 224.324,136.917 224.820,136.714 225.103 C 134.672 227.954,134.707 230.120,136.832 232.456 C 140.865 236.890,141.327 243.155,138.173 250.651 C 137.620 251.967,137.166 253.128,137.165 253.230 C 137.164 253.333,136.639 254.679,135.998 256.223 C 135.358 257.766,134.833 259.127,134.833 259.247 C 134.833 259.367,134.430 260.401,133.937 261.544 C 133.444 262.688,132.950 263.914,132.840 264.270 C 132.637 264.926,131.079 268.935,129.317 273.333 C 128.785 274.662,128.165 276.275,127.940 276.917 C 127.715 277.558,127.149 279.006,126.682 280.135 C 126.215 281.263,125.833 282.256,125.833 282.342 C 125.833 282.428,125.375 283.600,124.815 284.948 C 124.255 286.295,123.684 287.776,123.546 288.240 C 123.408 288.704,123.157 289.383,122.988 289.750 C 122.457 290.898,121.333 293.728,121.333 293.916 C 121.333 294.015,120.954 294.993,120.490 296.089 C 120.027 297.186,119.455 298.645,119.221 299.333 C 118.986 300.021,118.659 300.883,118.495 301.250 C 117.957 302.454,116.833 305.297,116.833 305.457 C 116.833 305.543,116.358 306.769,115.777 308.182 C 115.196 309.594,114.665 310.974,114.597 311.247 C 114.530 311.521,114.305 312.121,114.097 312.581 C 113.890 313.040,113.403 314.242,113.015 315.250 C 112.627 316.258,111.857 318.208,111.304 319.583 C 110.751 320.958,110.228 322.380,110.141 322.743 C 110.054 323.106,109.921 323.481,109.846 323.577 C 108.757 324.962,107.809 329.516,107.868 333.083 L 107.917 336.083 108.447 334.963 C 109.917 331.860,112.421 330.475,117.167 330.142 C 123.345 329.707,126.093 328.101,126.847 324.485 C 126.950 323.989,127.359 322.383,127.755 320.917 C 128.151 319.450,129.086 315.962,129.833 313.167 C 130.580 310.371,131.664 306.321,132.244 304.167 C 132.823 302.012,133.836 298.225,134.495 295.750 C 135.155 293.275,136.208 289.337,136.835 287.000 C 137.463 284.662,138.426 281.063,138.977 279.000 C 139.527 276.938,140.549 273.112,141.248 270.500 C 142.967 264.074,144.281 259.155,145.476 254.667 C 146.025 252.604,147.118 248.517,147.904 245.583 C 149.920 238.065,149.854 237.599,145.929 231.681 C 145.234 230.635,144.657 229.716,144.646 229.639 C 144.634 229.563,144.616 229.432,144.604 229.349 C 144.593 229.267,144.238 228.895,143.816 228.523 C 142.440 227.312,141.173 224.246,140.906 221.483 C 140.726 219.627,140.675 219.550,140.063 220.204 " stroke="none" fill="#040404" fill-rule="evenodd"></path><path id="path2" d="M283.833 204.944 C 283.604 204.980,282.367 205.160,281.083 205.343 C 279.800 205.527,277.887 205.854,276.833 206.070 C 275.779 206.286,272.704 206.916,270.000 207.469 C 264.327 208.630,257.182 210.204,253.047 211.204 L 250.176 211.897 250.286 212.324 C 250.554 213.370,250.636 213.307,247.000 214.833 C 239.197 218.106,235.913 220.250,236.507 221.683 C 236.896 222.622,239.960 225.150,241.036 225.420 C 242.862 225.878,244.244 230.476,246.071 242.167 C 246.920 247.597,248.326 256.964,248.660 259.417 C 248.848 260.792,249.373 264.467,249.827 267.583 C 250.598 272.878,251.354 278.250,254.332 299.583 C 254.984 304.258,256.006 311.521,256.601 315.722 C 257.806 324.217,257.804 324.136,256.835 326.055 C 255.621 328.457,253.715 330.439,252.182 330.892 L 251.447 331.109 252.028 331.553 C 252.348 331.797,252.941 332.176,253.347 332.396 C 253.752 332.615,254.780 333.183,255.632 333.657 C 256.484 334.132,257.464 334.620,257.811 334.742 C 258.158 334.865,259.315 335.423,260.383 335.982 C 261.451 336.542,262.394 337.000,262.480 337.000 C 262.565 337.000,263.293 337.387,264.096 337.860 C 267.622 339.935,271.530 339.814,274.241 337.545 C 274.510 337.319,274.917 337.063,275.145 336.977 C 275.372 336.890,276.314 336.392,277.237 335.870 C 278.161 335.348,279.195 334.794,279.536 334.638 C 279.876 334.482,280.664 334.060,281.286 333.699 C 281.908 333.339,282.942 332.763,283.583 332.420 C 284.877 331.729,285.991 331.050,288.153 329.636 C 290.836 327.882,291.408 325.404,290.244 320.573 C 290.018 319.636,289.833 318.502,289.833 318.052 C 289.833 317.602,289.382 313.788,288.831 309.576 C 288.280 305.363,287.756 301.054,287.667 300.000 C 287.578 298.946,287.017 294.344,286.419 289.773 C 285.822 285.203,285.335 281.228,285.337 280.940 C 285.339 280.652,284.854 276.517,284.259 271.750 C 282.016 253.777,281.448 249.171,281.135 246.417 C 280.958 244.858,280.403 240.283,279.902 236.250 C 279.401 232.217,278.995 228.804,279.000 228.667 C 279.005 228.529,279.914 227.742,281.019 226.917 C 285.049 223.908,285.988 223.156,288.057 221.283 C 288.684 220.715,289.298 220.193,289.422 220.122 C 289.759 219.931,291.155 217.621,291.642 216.449 C 292.269 214.938,292.385 210.447,291.843 208.662 C 291.436 207.322,290.149 205.624,289.160 205.125 C 288.608 204.847,285.193 204.730,283.833 204.944 M151.079 212.847 C 150.251 212.921,149.276 213.057,148.912 213.148 C 148.548 213.240,147.977 213.384,147.644 213.469 C 146.662 213.719,144.889 215.088,142.735 217.261 L 140.720 219.293 140.938 221.021 C 141.390 224.600,142.220 226.719,143.791 228.312 C 144.300 228.828,144.730 229.372,144.746 229.521 C 144.762 229.670,145.417 230.757,146.202 231.937 C 149.729 237.237,149.958 238.332,148.596 243.392 C 148.099 245.239,147.193 248.625,146.584 250.917 C 145.472 255.099,143.752 261.536,142.086 267.750 C 141.594 269.583,140.544 273.521,139.751 276.500 C 138.959 279.479,137.946 283.267,137.501 284.917 C 136.708 287.857,134.964 294.375,132.975 301.833 C 132.425 303.896,131.462 307.496,130.834 309.833 C 128.726 317.681,127.692 321.574,127.337 323.000 C 127.143 323.779,126.906 324.717,126.810 325.083 C 126.003 328.185,123.089 329.835,117.833 330.167 C 112.302 330.516,109.863 331.903,108.263 335.609 C 107.456 337.478,110.324 341.393,114.583 344.237 C 122.727 349.675,133.133 350.572,142.333 346.630 C 144.344 345.768,149.952 342.991,150.667 342.503 C 150.896 342.346,151.594 341.940,152.218 341.601 C 152.842 341.262,153.769 340.706,154.279 340.367 C 154.790 340.028,155.561 339.525,155.994 339.250 C 160.360 336.478,162.585 333.065,161.566 330.703 C 160.931 329.231,161.384 326.052,162.877 321.500 C 163.434 319.804,163.943 318.117,164.010 317.750 C 164.076 317.383,164.626 315.520,165.232 313.609 C 165.838 311.698,166.333 310.038,166.333 309.920 C 166.333 309.802,166.789 308.253,167.345 306.477 C 167.902 304.702,168.417 302.950,168.490 302.583 C 168.562 302.217,169.112 300.304,169.711 298.333 C 172.025 290.720,173.006 287.409,173.003 287.222 C 173.001 287.115,173.452 285.582,174.006 283.816 C 174.559 282.049,175.092 280.262,175.191 279.844 C 175.290 279.425,175.850 277.536,176.435 275.645 C 177.021 273.754,177.500 272.098,177.500 271.966 C 177.500 271.834,177.949 270.297,178.497 268.550 C 179.045 266.804,179.598 264.934,179.724 264.396 C 179.851 263.857,180.408 261.917,180.963 260.083 C 182.941 253.552,184.165 249.407,184.309 248.750 C 184.390 248.383,184.910 246.583,185.464 244.750 C 187.341 238.544,188.659 234.086,188.764 233.583 C 188.943 232.736,189.956 229.641,190.423 228.518 C 191.612 225.657,192.022 222.077,191.286 220.984 C 190.743 220.178,190.399 220.167,190.264 220.950 C 190.204 221.298,190.077 221.977,189.982 222.458 L 189.810 223.333 180.982 223.333 C 173.148 223.333,172.109 223.364,171.745 223.602 C 170.663 224.311,169.003 222.839,167.497 219.834 C 166.267 217.382,166.133 216.504,166.667 214.417 C 166.850 213.700,167.000 213.013,167.000 212.890 C 167.000 212.634,153.856 212.599,151.079 212.847 " stroke="none" fill="#fb5314" fill-rule="evenodd"></path><path id="path3" d="M172.372 72.500 C 172.372 72.821,172.406 72.952,172.448 72.792 C 172.490 72.631,172.490 72.369,172.448 72.208 C 172.406 72.048,172.372 72.179,172.372 72.500 M198.909 84.015 C 198.762 84.299,198.672 84.561,198.708 84.597 C 198.744 84.633,198.898 84.401,199.051 84.081 C 199.394 83.362,199.275 83.308,198.909 84.015 M202.712 91.000 C 202.712 91.412,202.745 91.581,202.784 91.375 C 202.824 91.169,202.824 90.831,202.784 90.625 C 202.745 90.419,202.712 90.587,202.712 91.000 M196.392 93.417 C 196.392 94.242,196.420 94.600,196.455 94.213 C 196.490 93.827,196.490 93.152,196.456 92.713 C 196.422 92.275,196.393 92.592,196.392 93.417 M216.667 94.789 C 216.896 94.831,217.196 94.952,217.333 95.058 C 217.551 95.225,217.554 95.212,217.355 94.958 C 217.229 94.798,216.929 94.677,216.688 94.689 L 216.250 94.712 216.667 94.789 M210.958 94.957 C 211.623 94.989,212.710 94.989,213.375 94.957 C 214.040 94.925,213.496 94.900,212.167 94.900 C 210.838 94.900,210.294 94.925,210.958 94.957 M209.875 102.448 C 210.035 102.490,210.298 102.490,210.458 102.448 C 210.619 102.406,210.487 102.372,210.167 102.372 C 209.846 102.372,209.715 102.406,209.875 102.448 M206.381 102.623 C 206.912 102.657,207.737 102.656,208.214 102.623 C 208.692 102.589,208.258 102.562,207.250 102.562 C 206.242 102.563,205.851 102.590,206.381 102.623 M182.167 117.417 C 182.665 117.921,183.109 118.333,183.155 118.333 C 183.201 118.333,182.831 117.921,182.333 117.417 C 181.835 116.912,181.391 116.500,181.345 116.500 C 181.299 116.500,181.669 116.912,182.167 117.417 M204.417 120.167 C 204.868 120.625,205.275 121.000,205.321 121.000 C 205.367 121.000,205.035 120.625,204.583 120.167 C 204.132 119.708,203.725 119.333,203.679 119.333 C 203.633 119.333,203.965 119.708,204.417 120.167 M171.167 121.385 C 171.167 121.414,171.410 121.658,171.708 121.927 L 172.250 122.417 171.760 121.875 C 171.304 121.370,171.167 121.257,171.167 121.385 M209.083 124.833 C 209.441 125.200,209.772 125.500,209.818 125.500 C 209.863 125.500,209.608 125.200,209.250 124.833 C 208.892 124.467,208.562 124.167,208.516 124.167 C 208.470 124.167,208.725 124.467,209.083 124.833 M227.833 138.075 C 227.833 138.121,228.058 138.274,228.333 138.417 C 228.608 138.559,228.833 138.638,228.833 138.592 C 228.833 138.546,228.608 138.392,228.333 138.250 C 228.058 138.108,227.833 138.029,227.833 138.075 M231.000 139.743 C 231.000 139.789,231.300 139.980,231.667 140.167 C 232.033 140.354,232.333 140.469,232.333 140.423 C 232.333 140.378,232.033 140.187,231.667 140.000 C 231.300 139.813,231.000 139.697,231.000 139.743 M208.833 147.250 C 209.063 147.381,209.325 147.488,209.417 147.488 C 209.508 147.488,209.396 147.381,209.167 147.250 C 208.938 147.119,208.675 147.012,208.583 147.012 C 208.492 147.012,208.604 147.119,208.833 147.250 M239.209 155.083 C 239.211 155.450,239.245 155.580,239.285 155.373 C 239.324 155.166,239.323 154.866,239.281 154.706 C 239.239 154.547,239.207 154.717,239.209 155.083 M239.404 160.417 C 239.404 162.433,239.429 163.235,239.458 162.199 C 239.487 161.163,239.487 159.513,239.458 158.532 C 239.428 157.552,239.404 158.400,239.404 160.417 M239.545 165.333 C 239.545 165.746,239.578 165.915,239.618 165.708 C 239.657 165.502,239.657 165.165,239.618 164.958 C 239.578 164.752,239.545 164.921,239.545 165.333 M239.705 167.167 C 239.705 167.487,239.740 167.619,239.782 167.458 C 239.823 167.298,239.823 167.035,239.782 166.875 C 239.740 166.715,239.705 166.846,239.705 167.167 M183.205 180.333 C 183.205 180.654,183.240 180.785,183.282 180.625 C 183.323 180.465,183.323 180.202,183.282 180.042 C 183.240 179.881,183.205 180.012,183.205 180.333 M181.205 196.000 C 181.205 196.321,181.240 196.452,181.282 196.292 C 181.323 196.131,181.323 195.869,181.282 195.708 C 181.240 195.548,181.205 195.679,181.205 196.000 M181.039 197.500 C 181.039 197.821,181.073 197.952,181.115 197.792 C 181.157 197.631,181.157 197.369,181.115 197.208 C 181.073 197.048,181.039 197.179,181.039 197.500 M180.872 199.000 C 180.872 199.321,180.906 199.452,180.948 199.292 C 180.990 199.131,180.990 198.869,180.948 198.708 C 180.906 198.548,180.872 198.679,180.872 199.000 M180.709 200.917 C 180.711 201.283,180.745 201.414,180.785 201.206 C 180.824 200.999,180.823 200.699,180.781 200.540 C 180.739 200.380,180.707 200.550,180.709 200.917 " stroke="none" fill="#7d7776" fill-rule="evenodd"></path><path id="path4" d="M180.500 115.952 C 180.637 116.002,180.900 116.165,181.083 116.313 C 181.414 116.581,181.414 116.580,181.099 116.208 C 180.925 116.002,180.662 115.839,180.516 115.846 C 180.290 115.858,180.288 115.874,180.500 115.952 M206.830 122.708 C 208.453 124.372,208.667 124.576,208.667 124.455 C 208.667 124.431,207.860 123.625,206.875 122.664 L 205.083 120.917 206.830 122.708 M234.500 142.083 C 234.811 142.404,235.103 142.667,235.149 142.667 C 235.195 142.667,234.978 142.404,234.667 142.083 C 234.356 141.762,234.064 141.500,234.018 141.500 C 233.972 141.500,234.189 141.762,234.500 142.083 M239.209 156.250 C 239.211 156.617,239.245 156.747,239.285 156.540 C 239.324 156.332,239.323 156.032,239.281 155.873 C 239.239 155.714,239.207 155.883,239.209 156.250 M247.250 214.580 C 246.792 214.796,246.492 214.974,246.583 214.976 C 246.675 214.978,247.125 214.803,247.583 214.587 C 248.042 214.371,248.342 214.193,248.250 214.191 C 248.158 214.189,247.708 214.364,247.250 214.580 M166.383 216.333 C 166.383 216.838,166.415 217.044,166.453 216.792 C 166.491 216.540,166.491 216.127,166.453 215.875 C 166.415 215.623,166.383 215.829,166.383 216.333 M241.792 217.011 C 241.265 217.283,240.833 217.543,240.833 217.588 C 240.833 217.663,242.817 216.719,242.986 216.564 C 243.204 216.364,242.624 216.581,241.792 217.011 M236.338 221.642 C 236.336 221.765,236.765 222.293,237.292 222.814 C 238.143 223.656,238.164 223.668,237.479 222.923 C 237.056 222.461,236.627 221.933,236.526 221.750 C 236.423 221.562,236.341 221.515,236.338 221.642 M169.810 223.125 C 170.128 223.423,170.468 223.667,170.565 223.667 C 170.662 223.667,170.555 223.542,170.329 223.391 C 170.102 223.239,169.762 222.995,169.574 222.849 C 169.385 222.703,169.491 222.827,169.810 223.125 M171.918 223.331 C 171.863 223.421,171.577 223.564,171.283 223.649 C 170.898 223.761,170.849 223.807,171.107 223.818 C 171.303 223.827,171.640 223.686,171.857 223.506 C 172.073 223.325,172.198 223.175,172.135 223.172 C 172.071 223.169,171.974 223.240,171.918 223.331 M241.034 225.548 C 241.281 225.665,241.694 225.943,241.950 226.167 C 242.378 226.539,242.375 226.530,241.917 226.054 C 241.642 225.768,241.229 225.489,241.000 225.435 C 240.599 225.340,240.601 225.345,241.034 225.548 M142.782 227.297 C 142.945 227.597,143.338 228.085,143.657 228.380 L 144.236 228.917 143.660 228.249 C 143.343 227.881,142.949 227.394,142.784 227.165 C 142.496 226.765,142.496 226.769,142.782 227.297 M146.645 232.750 C 146.735 232.933,146.931 233.233,147.080 233.417 L 147.352 233.750 147.188 233.417 C 147.098 233.233,146.902 232.933,146.753 232.750 L 146.482 232.417 146.645 232.750 M147.583 234.333 C 147.726 234.608,147.879 234.833,147.925 234.833 C 147.971 234.833,147.892 234.608,147.750 234.333 C 147.608 234.058,147.454 233.833,147.408 233.833 C 147.362 233.833,147.441 234.058,147.583 234.333 M149.385 239.417 C 149.386 239.967,149.417 240.172,149.454 239.872 C 149.491 239.572,149.490 239.122,149.452 238.872 C 149.414 238.622,149.384 238.867,149.385 239.417 M246.205 243.667 C 246.205 243.987,246.240 244.119,246.282 243.958 C 246.323 243.798,246.323 243.535,246.282 243.375 C 246.240 243.215,246.205 243.346,246.205 243.667 M147.014 248.764 C 146.906 249.191,146.850 249.572,146.888 249.610 C 146.926 249.648,147.045 249.330,147.153 248.903 C 147.260 248.476,147.317 248.095,147.279 248.057 C 147.241 248.018,147.121 248.337,147.014 248.764 M248.039 255.833 C 248.039 256.154,248.073 256.285,248.115 256.125 C 248.157 255.965,248.157 255.702,248.115 255.542 C 248.073 255.381,248.039 255.512,248.039 255.833 M144.929 256.595 C 144.867 256.839,144.849 257.071,144.889 257.111 C 144.928 257.150,145.010 256.982,145.071 256.738 C 145.133 256.494,145.151 256.262,145.111 256.223 C 145.072 256.183,144.990 256.351,144.929 256.595 M248.205 257.000 C 248.205 257.321,248.240 257.452,248.282 257.292 C 248.323 257.131,248.323 256.869,248.282 256.708 C 248.240 256.548,248.205 256.679,248.205 257.000 M248.372 258.167 C 248.372 258.487,248.406 258.619,248.448 258.458 C 248.490 258.298,248.490 258.035,248.448 257.875 C 248.406 257.715,248.372 257.846,248.372 258.167 M250.205 270.833 C 250.205 271.154,250.240 271.285,250.282 271.125 C 250.323 270.965,250.323 270.702,250.282 270.542 C 250.240 270.381,250.205 270.512,250.205 270.833 M250.372 272.000 C 250.372 272.321,250.406 272.452,250.448 272.292 C 250.490 272.131,250.490 271.869,250.448 271.708 C 250.406 271.548,250.372 271.679,250.372 272.000 M250.539 273.167 C 250.539 273.487,250.573 273.619,250.615 273.458 C 250.657 273.298,250.657 273.035,250.615 272.875 C 250.573 272.715,250.539 272.846,250.539 273.167 M140.429 273.429 C 140.367 273.673,140.349 273.905,140.389 273.944 C 140.428 273.983,140.510 273.816,140.571 273.571 C 140.633 273.327,140.651 273.095,140.611 273.056 C 140.572 273.017,140.490 273.184,140.429 273.429 M250.705 274.500 C 250.705 274.821,250.740 274.952,250.782 274.792 C 250.823 274.631,250.823 274.369,250.782 274.208 C 250.740 274.048,250.705 274.179,250.705 274.500 M252.705 288.667 C 252.705 288.987,252.740 289.119,252.782 288.958 C 252.823 288.798,252.823 288.535,252.782 288.375 C 252.740 288.215,252.705 288.346,252.705 288.667 M136.014 289.931 C 135.906 290.358,135.850 290.738,135.888 290.777 C 135.926 290.815,136.045 290.497,136.153 290.069 C 136.260 289.642,136.317 289.262,136.279 289.223 C 136.241 289.185,136.121 289.503,136.014 289.931 M252.872 289.833 C 252.872 290.154,252.906 290.285,252.948 290.125 C 252.990 289.965,252.990 289.702,252.948 289.542 C 252.906 289.381,252.872 289.512,252.872 289.833 M253.039 291.000 C 253.039 291.321,253.073 291.452,253.115 291.292 C 253.157 291.131,253.157 290.869,253.115 290.708 C 253.073 290.548,253.039 290.679,253.039 291.000 M133.429 299.595 C 133.367 299.839,133.349 300.071,133.389 300.111 C 133.428 300.150,133.510 299.982,133.571 299.738 C 133.633 299.494,133.651 299.262,133.611 299.223 C 133.572 299.183,133.490 299.351,133.429 299.595 M254.872 304.167 C 254.872 304.487,254.906 304.619,254.948 304.458 C 254.990 304.298,254.990 304.035,254.948 303.875 C 254.906 303.715,254.872 303.846,254.872 304.167 M255.039 305.333 C 255.039 305.654,255.073 305.785,255.115 305.625 C 255.157 305.465,255.157 305.202,255.115 305.042 C 255.073 304.881,255.039 305.012,255.039 305.333 M131.514 306.764 C 131.406 307.191,131.350 307.572,131.388 307.610 C 131.426 307.648,131.545 307.330,131.653 306.903 C 131.760 306.476,131.817 306.095,131.779 306.057 C 131.741 306.018,131.621 306.337,131.514 306.764 M255.205 306.500 C 255.205 306.821,255.240 306.952,255.282 306.792 C 255.323 306.631,255.323 306.369,255.282 306.208 C 255.240 306.048,255.205 306.179,255.205 306.500 M129.014 316.097 C 128.906 316.524,128.850 316.905,128.888 316.943 C 128.926 316.982,129.045 316.663,129.153 316.236 C 129.260 315.809,129.317 315.428,129.279 315.390 C 129.241 315.352,129.121 315.670,129.014 316.097 M257.039 319.667 C 257.039 319.987,257.073 320.119,257.115 319.958 C 257.157 319.798,257.157 319.535,257.115 319.375 C 257.073 319.215,257.039 319.346,257.039 319.667 M257.205 320.833 C 257.205 321.154,257.240 321.285,257.282 321.125 C 257.323 320.965,257.323 320.702,257.282 320.542 C 257.240 320.381,257.205 320.512,257.205 320.833 M257.372 322.000 C 257.372 322.321,257.406 322.452,257.448 322.292 C 257.490 322.131,257.490 321.869,257.448 321.708 C 257.406 321.548,257.372 321.679,257.372 322.000 M257.542 323.250 C 257.544 323.617,257.578 323.747,257.618 323.540 C 257.658 323.332,257.656 323.032,257.615 322.873 C 257.573 322.714,257.540 322.883,257.542 323.250 M127.095 323.262 C 127.034 323.506,127.016 323.738,127.055 323.777 C 127.094 323.817,127.177 323.649,127.238 323.405 C 127.299 323.161,127.317 322.929,127.278 322.889 C 127.239 322.850,127.157 323.018,127.095 323.262 M257.296 324.417 C 257.238 324.692,257.146 325.067,257.093 325.250 C 257.039 325.433,257.113 325.331,257.256 325.022 C 257.400 324.713,257.491 324.338,257.459 324.189 C 257.426 324.031,257.357 324.128,257.296 324.417 M125.075 327.708 L 124.417 328.417 125.125 327.758 C 125.515 327.395,125.833 327.077,125.833 327.050 C 125.833 326.923,125.688 327.050,125.075 327.708 M123.167 329.000 C 122.846 329.176,122.643 329.323,122.717 329.326 C 122.893 329.336,123.833 328.847,123.833 328.746 C 123.833 328.637,123.824 328.640,123.167 329.000 M254.491 329.292 L 253.917 329.917 254.542 329.342 C 255.123 328.808,255.243 328.667,255.116 328.667 C 255.088 328.667,254.807 328.948,254.491 329.292 M117.961 330.121 C 118.261 330.158,118.711 330.157,118.961 330.119 C 119.212 330.081,118.967 330.051,118.417 330.052 C 117.867 330.053,117.662 330.084,117.961 330.121 M111.575 331.486 C 111.112 331.751,110.626 332.107,110.495 332.276 C 110.266 332.571,110.270 332.572,110.596 332.294 C 110.784 332.135,111.345 331.780,111.844 331.506 C 112.342 331.231,112.675 331.005,112.583 331.005 C 112.492 331.004,112.038 331.220,111.575 331.486 M109.279 333.542 C 108.896 334.056,108.353 335.011,108.545 334.833 C 108.709 334.682,109.812 333.000,109.747 333.000 C 109.712 333.000,109.502 333.244,109.279 333.542 " stroke="none" fill="#7c402c" fill-rule="evenodd"></path></g></svg>